<mxfile host="app.diagrams.net" modified="2024-01-18T08:06:37.171Z" agent="Mozilla/5.0 (Windows NT 10.0; WOW64) AppleWebKit/537.36 (KHTML, like Gecko) Chrome/86.0.4240.198 Safari/537.36" etag="gJz8rvwclxfUPR2UxxqS" version="22.1.21" type="github">
  <diagram name="第 1 页" id="Of__D91aNl2rhqEbOlmq">
    <mxGraphModel dx="1101" dy="639" grid="0" gridSize="10" guides="1" tooltips="1" connect="1" arrows="1" fold="1" page="1" pageScale="1" pageWidth="200000" pageHeight="200000" math="0" shadow="0">
      <root>
        <mxCell id="0" />
        <mxCell id="1" parent="0" />
        <mxCell id="acBs6hBFpX8Cnyw0g5VL-8" style="rounded=0;orthogonalLoop=1;jettySize=auto;html=1;entryX=0;entryY=0.5;entryDx=0;entryDy=0;endArrow=none;endFill=0;" edge="1" parent="1" target="acBs6hBFpX8Cnyw0g5VL-4">
          <mxGeometry relative="1" as="geometry">
            <mxPoint x="66" y="415" as="sourcePoint" />
          </mxGeometry>
        </mxCell>
        <mxCell id="acBs6hBFpX8Cnyw0g5VL-1" value="&lt;font style=&quot;font-size: 16px;&quot;&gt;用户&lt;/font&gt;" style="shape=umlActor;verticalLabelPosition=bottom;verticalAlign=top;html=1;" vertex="1" parent="1">
          <mxGeometry x="34" y="385" width="30" height="60" as="geometry" />
        </mxCell>
        <mxCell id="acBs6hBFpX8Cnyw0g5VL-2" value="&lt;font style=&quot;font-size: 16px;&quot;&gt;算法库管理&lt;/font&gt;" style="ellipse;whiteSpace=wrap;html=1;" vertex="1" parent="1">
          <mxGeometry x="191" y="161" width="142" height="70" as="geometry" />
        </mxCell>
        <mxCell id="acBs6hBFpX8Cnyw0g5VL-11" style="rounded=0;orthogonalLoop=1;jettySize=auto;html=1;exitX=1;exitY=0;exitDx=0;exitDy=0;dashed=1;entryX=0.014;entryY=0.645;entryDx=0;entryDy=0;entryPerimeter=0;" edge="1" parent="1" source="acBs6hBFpX8Cnyw0g5VL-4" target="acBs6hBFpX8Cnyw0g5VL-5">
          <mxGeometry relative="1" as="geometry">
            <Array as="points" />
          </mxGeometry>
        </mxCell>
        <mxCell id="acBs6hBFpX8Cnyw0g5VL-13" value="&lt;font style=&quot;font-size: 16px;&quot;&gt;&amp;lt;&amp;lt;包含&amp;gt;&amp;gt;&lt;/font&gt;" style="edgeLabel;html=1;align=center;verticalAlign=middle;resizable=0;points=[];" vertex="1" connectable="0" parent="acBs6hBFpX8Cnyw0g5VL-11">
          <mxGeometry x="0.2574" y="1" relative="1" as="geometry">
            <mxPoint x="-1" as="offset" />
          </mxGeometry>
        </mxCell>
        <mxCell id="acBs6hBFpX8Cnyw0g5VL-4" value="&lt;font style=&quot;font-size: 16px;&quot;&gt;分析流程构建&lt;/font&gt;" style="ellipse;whiteSpace=wrap;html=1;" vertex="1" parent="1">
          <mxGeometry x="191" y="454" width="142" height="70" as="geometry" />
        </mxCell>
        <mxCell id="acBs6hBFpX8Cnyw0g5VL-5" value="&lt;font style=&quot;font-size: 16px;&quot;&gt;添加分析流程构建&lt;/font&gt;" style="ellipse;whiteSpace=wrap;html=1;" vertex="1" parent="1">
          <mxGeometry x="403" y="364" width="142" height="70" as="geometry" />
        </mxCell>
        <mxCell id="acBs6hBFpX8Cnyw0g5VL-6" value="&lt;font style=&quot;font-size: 16px;&quot;&gt;删除分析流程构建&lt;/font&gt;" style="ellipse;whiteSpace=wrap;html=1;" vertex="1" parent="1">
          <mxGeometry x="403" y="445" width="142" height="70" as="geometry" />
        </mxCell>
        <mxCell id="acBs6hBFpX8Cnyw0g5VL-7" value="&lt;font style=&quot;font-size: 16px;&quot;&gt;修改分析流程构建&lt;/font&gt;" style="ellipse;whiteSpace=wrap;html=1;" vertex="1" parent="1">
          <mxGeometry x="403" y="524" width="142" height="70" as="geometry" />
        </mxCell>
        <mxCell id="acBs6hBFpX8Cnyw0g5VL-9" style="rounded=0;orthogonalLoop=1;jettySize=auto;html=1;entryX=0.008;entryY=0.663;entryDx=0;entryDy=0;entryPerimeter=0;endArrow=none;endFill=0;" edge="1" parent="1" target="acBs6hBFpX8Cnyw0g5VL-2">
          <mxGeometry relative="1" as="geometry">
            <mxPoint x="68" y="400" as="sourcePoint" />
          </mxGeometry>
        </mxCell>
        <mxCell id="acBs6hBFpX8Cnyw0g5VL-10" value="&lt;font style=&quot;font-size: 16px;&quot;&gt;运行分析流程&lt;/font&gt;" style="ellipse;whiteSpace=wrap;html=1;" vertex="1" parent="1">
          <mxGeometry x="403" y="603" width="142" height="70" as="geometry" />
        </mxCell>
        <mxCell id="acBs6hBFpX8Cnyw0g5VL-14" style="rounded=0;orthogonalLoop=1;jettySize=auto;html=1;exitX=1;exitY=0.5;exitDx=0;exitDy=0;dashed=1;entryX=0;entryY=0.5;entryDx=0;entryDy=0;" edge="1" parent="1" source="acBs6hBFpX8Cnyw0g5VL-4" target="acBs6hBFpX8Cnyw0g5VL-6">
          <mxGeometry relative="1" as="geometry">
            <mxPoint x="323" y="474" as="sourcePoint" />
            <mxPoint x="415" y="419" as="targetPoint" />
            <Array as="points" />
          </mxGeometry>
        </mxCell>
        <mxCell id="acBs6hBFpX8Cnyw0g5VL-15" value="&lt;font style=&quot;font-size: 16px;&quot;&gt;&amp;lt;&amp;lt;包含&amp;gt;&amp;gt;&lt;/font&gt;" style="edgeLabel;html=1;align=center;verticalAlign=middle;resizable=0;points=[];" vertex="1" connectable="0" parent="acBs6hBFpX8Cnyw0g5VL-14">
          <mxGeometry x="0.2574" y="1" relative="1" as="geometry">
            <mxPoint x="-14" y="-12" as="offset" />
          </mxGeometry>
        </mxCell>
        <mxCell id="acBs6hBFpX8Cnyw0g5VL-16" style="rounded=0;orthogonalLoop=1;jettySize=auto;html=1;exitX=0.936;exitY=0.76;exitDx=0;exitDy=0;dashed=1;entryX=0;entryY=0.5;entryDx=0;entryDy=0;exitPerimeter=0;" edge="1" parent="1" source="acBs6hBFpX8Cnyw0g5VL-4" target="acBs6hBFpX8Cnyw0g5VL-7">
          <mxGeometry relative="1" as="geometry">
            <mxPoint x="333" y="484" as="sourcePoint" />
            <mxPoint x="425" y="429" as="targetPoint" />
            <Array as="points" />
          </mxGeometry>
        </mxCell>
        <mxCell id="acBs6hBFpX8Cnyw0g5VL-17" value="&lt;font style=&quot;font-size: 16px;&quot;&gt;&amp;lt;&amp;lt;包含&amp;gt;&amp;gt;&lt;/font&gt;" style="edgeLabel;html=1;align=center;verticalAlign=middle;resizable=0;points=[];" vertex="1" connectable="0" parent="acBs6hBFpX8Cnyw0g5VL-16">
          <mxGeometry x="0.2574" y="1" relative="1" as="geometry">
            <mxPoint x="-2" y="-21" as="offset" />
          </mxGeometry>
        </mxCell>
        <mxCell id="acBs6hBFpX8Cnyw0g5VL-18" style="rounded=0;orthogonalLoop=1;jettySize=auto;html=1;exitX=1;exitY=1;exitDx=0;exitDy=0;dashed=1;entryX=0;entryY=0.5;entryDx=0;entryDy=0;" edge="1" parent="1" source="acBs6hBFpX8Cnyw0g5VL-4" target="acBs6hBFpX8Cnyw0g5VL-10">
          <mxGeometry relative="1" as="geometry">
            <mxPoint x="334" y="517" as="sourcePoint" />
            <mxPoint x="413" y="569" as="targetPoint" />
            <Array as="points" />
          </mxGeometry>
        </mxCell>
        <mxCell id="acBs6hBFpX8Cnyw0g5VL-19" value="&lt;font style=&quot;font-size: 16px;&quot;&gt;&amp;lt;&amp;lt;包含&amp;gt;&amp;gt;&lt;/font&gt;" style="edgeLabel;html=1;align=center;verticalAlign=middle;resizable=0;points=[];" vertex="1" connectable="0" parent="acBs6hBFpX8Cnyw0g5VL-18">
          <mxGeometry x="0.2574" y="1" relative="1" as="geometry">
            <mxPoint x="-11" y="-20" as="offset" />
          </mxGeometry>
        </mxCell>
        <mxCell id="acBs6hBFpX8Cnyw0g5VL-20" value="&lt;font style=&quot;font-size: 16px;&quot;&gt;测试运行&lt;/font&gt;" style="ellipse;whiteSpace=wrap;html=1;" vertex="1" parent="1">
          <mxGeometry x="626" y="356" width="142" height="70" as="geometry" />
        </mxCell>
        <mxCell id="acBs6hBFpX8Cnyw0g5VL-21" style="rounded=0;orthogonalLoop=1;jettySize=auto;html=1;exitX=0;exitY=0.5;exitDx=0;exitDy=0;dashed=1;entryX=1;entryY=0.5;entryDx=0;entryDy=0;" edge="1" parent="1" source="acBs6hBFpX8Cnyw0g5VL-20" target="acBs6hBFpX8Cnyw0g5VL-5">
          <mxGeometry relative="1" as="geometry">
            <mxPoint x="323" y="474" as="sourcePoint" />
            <mxPoint x="415" y="419" as="targetPoint" />
            <Array as="points" />
          </mxGeometry>
        </mxCell>
        <mxCell id="acBs6hBFpX8Cnyw0g5VL-22" value="&lt;font style=&quot;font-size: 16px;&quot;&gt;&amp;lt;&amp;lt;扩展&amp;gt;&amp;gt;&lt;/font&gt;" style="edgeLabel;html=1;align=center;verticalAlign=middle;resizable=0;points=[];" vertex="1" connectable="0" parent="acBs6hBFpX8Cnyw0g5VL-21">
          <mxGeometry x="0.2574" y="1" relative="1" as="geometry">
            <mxPoint x="10" y="-19" as="offset" />
          </mxGeometry>
        </mxCell>
        <mxCell id="acBs6hBFpX8Cnyw0g5VL-23" value="&lt;font style=&quot;font-size: 16px;&quot;&gt;添加/修改算法组件&lt;/font&gt;" style="ellipse;whiteSpace=wrap;html=1;" vertex="1" parent="1">
          <mxGeometry x="399" y="71" width="142" height="70" as="geometry" />
        </mxCell>
        <mxCell id="acBs6hBFpX8Cnyw0g5VL-24" value="&lt;font style=&quot;font-size: 16px;&quot;&gt;删除算法组件&lt;/font&gt;" style="ellipse;whiteSpace=wrap;html=1;" vertex="1" parent="1">
          <mxGeometry x="399" y="253" width="142" height="70" as="geometry" />
        </mxCell>
        <mxCell id="acBs6hBFpX8Cnyw0g5VL-25" value="&lt;font style=&quot;font-size: 16px;&quot;&gt;查询算法组件&lt;/font&gt;" style="ellipse;whiteSpace=wrap;html=1;" vertex="1" parent="1">
          <mxGeometry x="399" y="164" width="142" height="70" as="geometry" />
        </mxCell>
        <mxCell id="acBs6hBFpX8Cnyw0g5VL-26" style="rounded=0;orthogonalLoop=1;jettySize=auto;html=1;dashed=1;exitX=1;exitY=0;exitDx=0;exitDy=0;entryX=0.074;entryY=0.752;entryDx=0;entryDy=0;entryPerimeter=0;" edge="1" parent="1" source="acBs6hBFpX8Cnyw0g5VL-2" target="acBs6hBFpX8Cnyw0g5VL-23">
          <mxGeometry relative="1" as="geometry">
            <mxPoint x="312.99999999999983" y="33" as="sourcePoint" />
            <mxPoint x="408" y="121" as="targetPoint" />
            <Array as="points" />
          </mxGeometry>
        </mxCell>
        <mxCell id="acBs6hBFpX8Cnyw0g5VL-27" value="&lt;font style=&quot;font-size: 16px;&quot;&gt;&amp;lt;&amp;lt;包含&amp;gt;&amp;gt;&lt;/font&gt;" style="edgeLabel;html=1;align=center;verticalAlign=middle;resizable=0;points=[];" vertex="1" connectable="0" parent="acBs6hBFpX8Cnyw0g5VL-26">
          <mxGeometry x="0.2574" y="1" relative="1" as="geometry">
            <mxPoint x="-1" as="offset" />
          </mxGeometry>
        </mxCell>
        <mxCell id="acBs6hBFpX8Cnyw0g5VL-28" style="rounded=0;orthogonalLoop=1;jettySize=auto;html=1;dashed=1;exitX=1;exitY=0.5;exitDx=0;exitDy=0;entryX=0;entryY=0.5;entryDx=0;entryDy=0;" edge="1" parent="1" source="acBs6hBFpX8Cnyw0g5VL-2" target="acBs6hBFpX8Cnyw0g5VL-25">
          <mxGeometry relative="1" as="geometry">
            <mxPoint x="323" y="181" as="sourcePoint" />
            <mxPoint x="424" y="115" as="targetPoint" />
            <Array as="points" />
          </mxGeometry>
        </mxCell>
        <mxCell id="acBs6hBFpX8Cnyw0g5VL-29" value="&lt;font style=&quot;font-size: 16px;&quot;&gt;&amp;lt;&amp;lt;包含&amp;gt;&amp;gt;&lt;/font&gt;" style="edgeLabel;html=1;align=center;verticalAlign=middle;resizable=0;points=[];" vertex="1" connectable="0" parent="acBs6hBFpX8Cnyw0g5VL-28">
          <mxGeometry x="0.2574" y="1" relative="1" as="geometry">
            <mxPoint x="-13" y="-15" as="offset" />
          </mxGeometry>
        </mxCell>
        <mxCell id="acBs6hBFpX8Cnyw0g5VL-31" style="rounded=0;orthogonalLoop=1;jettySize=auto;html=1;dashed=1;exitX=1;exitY=1;exitDx=0;exitDy=0;entryX=0;entryY=0.5;entryDx=0;entryDy=0;" edge="1" parent="1" source="acBs6hBFpX8Cnyw0g5VL-2" target="acBs6hBFpX8Cnyw0g5VL-24">
          <mxGeometry relative="1" as="geometry">
            <mxPoint x="343" y="206" as="sourcePoint" />
            <mxPoint x="427" y="195" as="targetPoint" />
            <Array as="points" />
          </mxGeometry>
        </mxCell>
        <mxCell id="acBs6hBFpX8Cnyw0g5VL-32" value="&lt;font style=&quot;font-size: 16px;&quot;&gt;&amp;lt;&amp;lt;包含&amp;gt;&amp;gt;&lt;/font&gt;" style="edgeLabel;html=1;align=center;verticalAlign=middle;resizable=0;points=[];" vertex="1" connectable="0" parent="acBs6hBFpX8Cnyw0g5VL-31">
          <mxGeometry x="0.2574" y="1" relative="1" as="geometry">
            <mxPoint x="3" y="-28" as="offset" />
          </mxGeometry>
        </mxCell>
        <mxCell id="acBs6hBFpX8Cnyw0g5VL-33" value="&lt;font style=&quot;font-size: 16px;&quot;&gt;公式编辑&lt;/font&gt;" style="ellipse;whiteSpace=wrap;html=1;" vertex="1" parent="1">
          <mxGeometry x="607" y="32" width="142" height="70" as="geometry" />
        </mxCell>
        <mxCell id="acBs6hBFpX8Cnyw0g5VL-34" style="rounded=0;orthogonalLoop=1;jettySize=auto;html=1;exitX=0;exitY=0.5;exitDx=0;exitDy=0;dashed=1;" edge="1" parent="1" source="acBs6hBFpX8Cnyw0g5VL-33" target="acBs6hBFpX8Cnyw0g5VL-23">
          <mxGeometry relative="1" as="geometry">
            <mxPoint x="636" y="401" as="sourcePoint" />
            <mxPoint x="555" y="409" as="targetPoint" />
            <Array as="points" />
          </mxGeometry>
        </mxCell>
        <mxCell id="acBs6hBFpX8Cnyw0g5VL-35" value="&lt;font style=&quot;font-size: 16px;&quot;&gt;&amp;lt;&amp;lt;扩展&amp;gt;&amp;gt;&lt;/font&gt;" style="edgeLabel;html=1;align=center;verticalAlign=middle;resizable=0;points=[];" vertex="1" connectable="0" parent="acBs6hBFpX8Cnyw0g5VL-34">
          <mxGeometry x="0.2574" y="1" relative="1" as="geometry">
            <mxPoint x="-7" y="-20" as="offset" />
          </mxGeometry>
        </mxCell>
        <mxCell id="acBs6hBFpX8Cnyw0g5VL-36" value="&lt;font style=&quot;font-size: 16px;&quot;&gt;配置组件元信息&lt;/font&gt;" style="ellipse;whiteSpace=wrap;html=1;" vertex="1" parent="1">
          <mxGeometry x="607" y="111" width="142" height="70" as="geometry" />
        </mxCell>
        <mxCell id="acBs6hBFpX8Cnyw0g5VL-38" style="rounded=0;orthogonalLoop=1;jettySize=auto;html=1;dashed=1;entryX=0;entryY=0.5;entryDx=0;entryDy=0;exitX=0.921;exitY=0.745;exitDx=0;exitDy=0;exitPerimeter=0;" edge="1" parent="1" source="acBs6hBFpX8Cnyw0g5VL-23" target="acBs6hBFpX8Cnyw0g5VL-36">
          <mxGeometry relative="1" as="geometry">
            <mxPoint x="540.9970418225143" y="115.00357021421542" as="sourcePoint" />
            <mxPoint x="614.3000000000004" y="130.9999999999999" as="targetPoint" />
            <Array as="points" />
          </mxGeometry>
        </mxCell>
        <mxCell id="acBs6hBFpX8Cnyw0g5VL-39" value="&lt;font style=&quot;font-size: 16px;&quot;&gt;&amp;lt;&amp;lt;包含&amp;gt;&amp;gt;&lt;/font&gt;" style="edgeLabel;html=1;align=center;verticalAlign=middle;resizable=0;points=[];" vertex="1" connectable="0" parent="acBs6hBFpX8Cnyw0g5VL-38">
          <mxGeometry x="0.2574" y="1" relative="1" as="geometry">
            <mxPoint x="-4" y="-22" as="offset" />
          </mxGeometry>
        </mxCell>
      </root>
    </mxGraphModel>
  </diagram>
</mxfile>
